<svg xmlns="http://www.w3.org/2000/svg" xmlns:xlink="http://www.w3.org/1999/xlink" version="1.1" width="3456pt" height="864pt" viewBox="0 0 3456 864">
<defs>
<clipPath id="clip_0">
<path transform="matrix(1,0,0,-1,0,864)" d="M0 864H3456V0H0Z"/>
</clipPath>
</defs>
<g id="layer_1" data-name="Layer 1">
<g clip-path="url(#clip_0)">
<path transform="matrix(1,0,0,-1,691.3054,765.6063)" d="M0 0C19.994-2.981 39.906-7.187 60.072-6.949 96.65-6.517 132.481 1.87 167.601 18.37 174.099 21.424 180.056 21.256 186.7 18.578 268.612-14.435 345.692 4.469 417.564 77.555 420.63 80.673 423.741 83.673 426.83 86.728 438.861 84.889 450.947 84.415 462.99 83.213 488.476 80.669 513.996 78.838 539.434 74.584 558.355 71.42 577.304 68.719 596.151 64.488 624.344 58.159 652.399 50.621 679.473 35.663 685.222 32.487 690.515 27.797 694.714 20.085 698.32 13.464 698.368 7.567 694.519 1.456 686.757-10.87 676.77-16.428 666.8-20.709 638.811-32.725 610.297-40.105 581.529-45.504 554.951-50.491 528.384-54.837 501.67-57.475 482.872-59.33 464.03-60.186 445.286-62.432 422.988-65.104 400.684-61.852 378.52-64.743 361.799-66.924 345.076-67.782 328.486-66.181 304.51-63.866 280.531-66.002 256.622-63.911 237.095-62.204 217.523-61.744 198.039-59.307 148.351-53.091 98.637-46.629 49.68-30.557 34.839-25.685 19.827-20.631 6.11-9.164 3.614-7.077 .649-5.527 0 0" fill="#e5e6e8"/>
<path transform="matrix(1,0,0,-1,691.3054,781.345)" d="M0 0C-23.551 5.942-47.383 10.889-69.874 20.489-107.333 36.479-141.244 57.295-164.72 91.717-193.649 134.136-195.499 180.109-181.382 227.894-172.501 257.956-157.401 284.91-139.731 310.554-138.749 311.98-138.148 313.995-134.808 313.629-138.382 302.659-142.348 291.968-145.349 281.014-157.066 238.249-157.588 196.052-134.8 156.454-111.049 115.183-75.049 89.009-29.201 77.031 37.337 59.646 104.11 63.42 170.512 77.805 254.089 95.912 329.684 131.567 397.395 183.859 398.587 184.781 399.9 185.547 401.156 186.386 411.185 186.967 421.053 184.595 430.999 184.529 455.86 184.365 480.41 187.482 504.489 193.662 562.227 208.481 609.586 239.138 641.734 289.687 675.172 342.266 681.736 400.15 668.637 460.55 659.588 502.278 641.946 540.171 616.175 574.134 604.693 589.266 593.197 604.517 578.504 616.877 573.316 618.646 570.82 623.394 567.123 626.868 541.153 651.266 512.224 671.394 479.412 685.566 468.396 690.323 457.666 696.125 445.384 697.296 444.797 701.885 440.569 701.528 437.726 702.448 410.62 711.226 382.808 717.287 354.421 718.875 314.557 721.104 275.316 716.982 237.584 702.58 185.429 682.673 145.109 648.809 118.568 599.736 96.405 558.758 91.251 514.399 96.516 468.469 102.621 415.203 124.721 368.784 156.095 326.097 159.041 322.088 164.184 319.294 164.49 313.471 123.433 283.415 78.415 264.475 26.604 267.315 .781 268.731-21.556 278.221-32.693 304.135-38.304 317.189-38.831 331.367-39.687 345.271-45.107 433.288-22.611 513.962 29.73 584.582 94.482 671.948 181.649 723.036 290.656 733.931 384.833 743.344 470.854 720.039 546.099 662.75 631.254 597.917 681.239 511.882 691.883 404.579 701.198 310.686 676.934 225.743 620.872 149.993 596.846 117.53 567.701 90.111 535.084 66.358 531.211 64.02 527.311 61.724 523.467 59.339 433.367 3.419 336.738-11.045 234.051 14.215 225.723 16.263 218.254 16.392 210.108 14.056 166.082 1.431 121.163-4.986 75.308-5.316 50.028-5.499 25.065-2.281 0 0" fill="#0e4d96"/>
<path transform="matrix(1,0,0,-1,1136.6893,84.04907)" d="M0 0C12.282-1.171 23.012-6.973 34.028-11.73 66.84-25.902 95.769-46.03 121.739-70.428 125.436-73.902 127.932-78.65 133.121-80.418 132.937-83.31 133.948-85.607 135.967-87.776 153.55-106.658 165.942-128.753 175.564-152.505 189.54-187.005 194.279-222.936 187.257-259.347 179.592-299.094 159.199-332.13 126.156-356.111 110.28-367.633 93.342-377.968 73.413-381.575 91.7-351.865 109.199-321.721 123.213-289.7 128.31-278.053 133.67-266.474 137.865-254.498 140.197-247.841 143.476-247.111 149.406-248.745 158.062-251.131 166.883-252.918 177.532-255.403 156.857-202.325 136.645-150.437 116.082-97.646 74.157-135.457 32.974-172.6-9.456-210.868 1.82-213.678 11.52-216.442 21.381-218.397 25.984-219.31 26.733-221.028 25.416-225.08 6.558-283.075-21.354-336.182-59.986-383.511-60.542-384.192-61.389-384.634-62.1-385.187-62.293-379.118-67.656-379.398-71.314-378.139-92.577-370.82-112.531-360.903-131.384-348.703-131.31-348.408-131.335-348.008-131.149-347.834-124.704-341.794-122.477-329.377-113.136-329.238-105.194-329.121-97.154-335.61-86.983-340.145-96.599-294.055-105.889-249.532-115.353-204.17-139.526-219.563-163.015-234.579-186.57-249.491-196.041-255.487-205.655-261.255-215.203-267.127-214.515-260.931-218.146-256.151-220.817-251.225-241.871-212.408-249.338-171.141-242.589-127.575-237.736-96.245-223.637-69.085-201.975-46.075-165.937-7.793-119.45 6.099-68.836 8.845-45.545 10.108-22.634 5.417 0 0" fill="#0c68ae"/>
<path transform="matrix(1,0,0,-1,1136.6893,84.04907)" d="M0 0C-22.634 5.417-45.545 10.108-68.836 8.845-119.45 6.099-165.937-7.793-201.975-46.075-223.637-69.085-237.736-96.245-242.589-127.575-249.338-171.141-241.871-212.408-220.817-251.225-218.146-256.151-214.515-260.931-215.203-267.127-217.907-269.041-220.601-270.969-223.319-272.862-226.014-274.74-228.734-276.582-232.693-279.297-224.331-282.953-217.066-286.172-209.762-289.3-206.851-290.547-204.295-291.334-206.358-295.684-223.171-331.128-247.305-360.436-279.157-383.36-279.612-383.687-280.309-383.677-280.894-383.825-281.2-378.002-286.343-375.207-289.289-371.199-320.662-328.512-342.763-282.093-348.868-228.827-354.133-182.897-348.979-138.538-326.816-97.559-300.275-48.487-259.955-14.622-207.8 5.284-170.068 19.686-130.827 23.808-90.963 21.579-62.576 19.991-34.764 13.93-7.658 5.153-4.815 4.232-.587 4.589 0 0" fill="#0e5fa6"/>
<path transform="matrix(1,0,0,-1,976.2258,562.67068)" d="M0 0C-31.457-24.768-66.05-44.219-102.901-59.574-143.25-76.387-185.012-88.042-228.968-89.718-275.612-91.495-319.66-83.535-357.832-54.008-386.709-31.671-400.805-1.696-402.978 33.844-406.016 83.52-389.288 126.871-357.843 164.901-356.758 166.214-355.844 168.059-352.641 167.953-354.702 155.568-357.302 143.367-358.678 131.03-362.879 93.365-358.591 57.427-333.562 26.912-309.221-2.762-276.071-13.486-239.091-14.433-181.791-15.9-130.781 4.034-82.444 32.633-76.971 35.871-71.547 39.193-66.1 42.475-64.703 41.979-63 41.837-61.955 40.933-46.138 27.251-27.861 17.416-9.726 7.362-6.118 5.362-1.562 4.68 0 0" fill="#0d60a6"/>
<path transform="matrix(1,0,0,-1,1210.1019,465.6244)" d="M0 0C19.93 3.607 36.867 13.942 52.743 25.464 85.787 49.445 106.179 82.481 113.845 122.228 120.867 158.639 116.128 194.57 102.151 229.071 92.53 252.822 80.137 274.918 62.555 293.8 60.535 295.968 59.524 298.266 59.708 301.157 74.401 288.796 85.896 273.546 97.378 258.414 123.149 224.45 140.792 186.558 149.841 144.83 162.939 84.429 156.375 26.545 122.937-26.033 90.79-76.582 43.43-107.239-14.308-122.059-38.387-128.239-62.937-131.356-87.797-131.191-97.743-131.125-107.611-128.754-117.64-129.334-105.331-118.161-92.814-107.206-80.752-95.77-50.271-66.873-23.718-34.622 0 0" fill="#0e5fa6"/>
<path transform="matrix(1,0,0,-1,976.2258,562.67068)" d="M0 0C-1.562 4.68-6.118 5.362-9.726 7.362-27.861 17.416-46.138 27.251-61.955 40.933-63 41.837-64.703 41.979-66.1 42.475-56.125 50.241-46.132 57.983-36.179 65.777-12.014 84.702 8.78 107.061 29.08 129.919 47.932 117.719 67.887 107.801 89.149 100.482 92.808 99.223 98.17 99.504 98.364 93.434 71.553 58.176 39.389 28.438 4.024 2.012 2.842 1.128 1.348 .661 0 0" fill="#0e5fa6"/>
<path transform="matrix(1,0,0,-1,1570.9596,569.07107)" d="M0 0V-29.389H51.541V-68.101H0V-98.42H54.339V-137.136H-45.713V38.712H54.339V0Z" fill="#0e4d96"/>
<path transform="matrix(1,0,0,-1,1659.3488,530.359)" d="M0 0H45.715L129.438-107.516H129.901V0H175.616V-175.848H129.901L46.178-68.101H45.715V-175.848H0Z" fill="#0e4d96"/>
<path transform="matrix(1,0,0,-1,1940.615,706.2068)" d="M0 0H-45.715V137.136H-83.496V175.848H37.781V137.136H0Z" fill="#0e4d96"/>
<path transform="matrix(1,0,0,-1,2046.4927,569.07107)" d="M0 0V-29.389H51.543V-68.101H0V-98.42H54.339V-137.136H-45.711V38.712H54.339V0Z" fill="#0e4d96"/>
<path transform="matrix(1,0,0,-1,2180.5926,609.1851)" d="M0 0H4.43C8.161 0 11.892 .232 15.623 .699 19.358 1.166 22.74 2.174 25.771 3.731 28.803 5.284 31.287 7.499 33.233 10.376 35.176 13.253 36.147 17.098 36.147 21.923 36.147 26.739 35.176 30.588 33.233 33.465 31.287 36.342 28.803 38.558 25.771 40.114 22.74 41.667 19.358 42.679 15.623 43.146 11.892 43.609 8.161 43.845 4.43 43.845H0ZM100.517-97.022H43.614L.467-29.389H0V-97.022H-45.711V78.826H22.622C31.327 78.826 39.415 77.777 46.877 75.68 54.339 73.579 60.789 70.316 66.235 65.886 71.673 61.451 75.948 55.814 79.062 48.974 82.171 42.13 83.728 34.05 83.728 24.719 83.728 18.655 82.911 12.863 81.277 7.344 79.643 1.825 77.196-3.15 73.929-7.58 70.665-12.014 66.621-15.745 61.801-18.777 56.981-21.809 51.461-23.869 45.243-24.954Z" fill="#0e4d96"/>
<path transform="matrix(1,0,0,-1,2345.0118,611.0506)" d="M0 0H7.694C11.892 0 15.936 .114 19.821 .35 23.707 .581 27.206 1.357 30.319 2.678 33.424 3.999 35.916 6.1 37.781 8.978 39.647 11.851 40.582 16.009 40.582 21.455 40.582 27.052 39.683 31.368 37.899 34.4 36.107 37.432 33.737 39.647 30.782 41.045 27.828 42.443 24.333 43.26 20.289 43.496 16.245 43.727 12.046 43.845 7.694 43.845H0ZM-45.711 80.692H24.255C33.737 80.692 42.406 79.562 50.258 77.31 58.106 75.054 64.833 71.596 70.433 66.934 76.03 62.268 80.379 56.282 83.492 48.974 86.601 41.667 88.157 32.957 88.157 22.853 88.157 2.016 82.793-13.144 72.063-22.626 61.338-32.112 45.942-36.851 25.885-36.851H0V-95.156H-45.711Z" fill="#0e4d96"/>
<path transform="matrix(1,0,0,-1,2505.0008,609.1851)" d="M0 0H4.43C8.161 0 11.892 .232 15.623 .699 19.358 1.166 22.74 2.174 25.771 3.731 28.803 5.284 31.287 7.499 33.233 10.376 35.176 13.253 36.147 17.098 36.147 21.923 36.147 26.739 35.176 30.588 33.233 33.465 31.287 36.342 28.803 38.558 25.771 40.114 22.74 41.667 19.358 42.679 15.623 43.146 11.892 43.609 8.161 43.845 4.43 43.845H0ZM100.517-97.022H43.614L.467-29.389H0V-97.022H-45.711V78.826H22.622C31.327 78.826 39.415 77.777 46.877 75.68 54.339 73.579 60.789 70.316 66.235 65.886 71.673 61.451 75.948 55.814 79.062 48.974 82.171 42.13 83.728 34.05 83.728 24.719 83.728 18.655 82.911 12.863 81.277 7.344 79.643 1.825 77.196-3.15 73.929-7.58 70.665-12.014 66.621-15.745 61.801-18.777 56.981-21.809 51.461-23.869 45.243-24.954Z" fill="#0e4d96"/>
<path transform="matrix(1,0,0,-1,0,864)" d="M2669.424 157.793H2623.714V333.641H2669.424Z" fill="#0e4d96"/>
<path transform="matrix(1,0,0,-1,2801.6544,575.6022)" d="M0 0C-4.194 3.572-8.901 6.413-14.107 8.511-19.317 10.612-24.719 11.66-30.315 11.66-32.498 11.66-34.713 11.347-36.964 10.73-39.22 10.104-41.317 9.173-43.26 7.929-45.207 6.682-46.8 5.166-48.043 3.381-49.287 1.593-49.909-.549-49.909-3.032-49.909-5.678-49.21-7.893-47.808-9.681-46.41-11.469-44.699-13.026-42.679-14.343-40.659-15.668-38.48-16.757-36.147-17.61-33.815-18.464-31.64-19.204-29.616-19.825L-17.956-23.321C-11.892-25.19-6.219-27.405-.931-29.97 4.353-32.534 8.941-35.684 12.831-39.415 16.712-43.146 19.785-47.617 22.04-52.827 24.292-58.037 25.422-64.215 25.422-71.368 25.422-80.074 24.142-88.666 21.573-97.135 19.008-105.614 14.229-112.803 7.23-118.709 .236-124.622-7.616-128.857-16.322-131.421-25.032-133.986-33.815-135.27-42.679-135.27-53.872-135.27-64.719-133.519-75.213-130.023-85.707-126.524-95.465-121.59-104.48-115.213L-84.89-78.363C-79.139-83.341-72.921-87.617-66.235-91.19-59.55-94.77-52.242-96.554-44.309-96.554-41.667-96.554-39.025-96.205-36.379-95.506-33.737-94.807-31.368-93.754-29.267-92.356-27.17-90.958-25.458-89.133-24.138-86.877-22.817-84.622-22.154-81.943-22.154-78.83-22.154-75.562-23.126-72.848-25.068-70.665-27.015-68.491-29.425-66.625-32.299-65.069-35.18-63.516-38.212-62.272-41.395-61.338-44.585-60.403-47.422-59.553-49.909-58.773-57.062-56.753-63.553-54.615-69.381-52.36-75.213-50.108-80.228-47.19-84.423-43.613-88.621-40.037-91.852-35.53-94.104-30.088-96.359-24.646-97.485-17.647-97.485-9.096-97.485-.232-95.969 7.848-92.937 15.16-89.905 22.467-85.707 28.685-80.342 33.819-74.977 38.948-68.604 42.91-61.22 45.711-53.835 48.511-45.711 49.909-36.846 49.909-32.498 49.909-27.869 49.559-22.971 48.86-18.074 48.161-13.254 47.186-8.511 45.942-3.772 44.699 .894 43.183 5.483 41.394 10.067 39.606 14.306 37.623 18.191 35.448Z" fill="#0e4d96"/>
<path transform="matrix(1,0,0,-1,2900.3099,569.07107)" d="M0 0V-29.389H51.543V-68.101H0V-98.42H54.339V-137.136H-45.711V38.712H54.339V0Z" fill="#0e4d96"/>
<path transform="matrix(1,0,0,-1,1660.7144,174.01599)" d="M0 0C52.213 0 90.527-20.344 117.31-65.097L63.065-94.933C63.065-94.933 45.434-58.995-.675-58.995-45.093-58.995-65.097-95.272-65.097-142.399-65.097-186.476-44.751-221.737 5.426-221.737 34.245-221.737 60.691-199.699 63.065-175.626H3.394V-121.379H133.588V-135.62C133.588-212.582 97.985-278.696 .679-278.696-82.049-278.696-134.937-215.295-134.937-139.688-134.937-60.011-75.607 0 0 0" fill="#404041"/>
<path transform="matrix(1,0,0,-1,1820.7197,443.2195)" d="M0 0 40.687 259.709H106.463L161.387 117.989 215.637 259.709H284.123L325.485 0H256.32L235.978 149.18 176.986 0H145.114L86.796 149.859 68.491 0Z" fill="#404041"/>
<path transform="matrix(1,0,0,-1,2259.4188,384.9037)" d="M0 0H29.835C69.84 0 94.591 31.87 94.591 75.607 94.591 115.276 68.145 144.773 31.868 144.773H0ZM-68.828 201.394H39.667C109.511 201.394 163.078 149.52 163.078 74.591 163.078-1.355 112.563-58.316 40.346-58.316H-68.828Z" fill="#404041"/>
</g>
</g>
</svg>
